<?xml version="1.0" encoding="UTF-8"?>
<svg width="96px" height="96px" viewBox="0 0 96 96" version="1.1" xmlns="http://www.w3.org/2000/svg" xmlns:xlink="http://www.w3.org/1999/xlink">
    <!-- Generator: Sketch 42 (36781) - http://www.bohemiancoding.com/sketch -->
    <title>logo</title>
    <desc>Created with Sketch.</desc>
    <defs></defs>
    <g id="Page-1" stroke="none" stroke-width="1" fill="none" fill-rule="evenodd">
        <g id="logo" fill-rule="nonzero">
            <rect id="Rectangle-path" fill="#000000" x="0" y="0" width="96" height="96"></rect>
            <rect id="Rectangle-path" fill="#000000" x="4" y="4" width="88" height="88"></rect>
            <path d="M63,70 L63,35 L63,35 C63,33.3 61.7,32 60,32 L57,32 L57,61 C57,66 53,70 48,70 C45.7,70 43.6,69.1 42,67.7 C40.4,69.1 38.3,70 36,70 C31,70 27,66 27,61 L27,26 L33,26 L33,61 L33,61 L33,61 C33,62.7 34.3,64 36,64 C37.7,64 39,62.7 39,61 L39,61 L39,26 L45,26 L45,61 L45,61 C45,62.7 46.3,64 48,64 C49.7,64 51,62.7 51,61 L51,61 L51,26 L60,26 C65,26 69,30 69,35 L69,70 L63,70 Z" id="Shape" fill="#FFFFFF"></path>
        </g>
    </g>
</svg>