<svg class="logo" width="48" height="48" viewBox="0 0 96 96">
            <rect class="outer" width="96" height="96"></rect>
            <rect class="inner" y="4" x="4" width="88" height="88"></rect>
            <path class="glyph" d="M63,70 L63,35 L63,35 C63,33.3 61.7,32 60,32 L57,32 L57,61 C57,66 53,70 48,70 C45.7,70 43.6,69.1 42,67.7 C40.4,69.1 38.3,70 36,70 C31,70 27,66 27,61 L27,26 L33,26 L33,61 L33,61 L33,61 C33,62.7 34.3,64 36,64 C37.7,64 39,62.7 39,61 L39,61 L39,26 L45,26 L45,61 L45,61 C45,62.7 46.3,64 48,64 C49.7,64 51,62.7 51,61 L51,61 L51,26 L60,26 C65,26 69,30 69,35 L69,70 L63,70 Z" i fill="#FFFFFF"></path></svg>





