<svg xmlns="http://www.w3.org/2000/svg" width="60" height="60" viewBox="0 0 60 60">
    <path id="insta" class="cls-2" d="M309.879,134.246a14.681,14.681,0,0,1-.929,4.854,10.226,10.226,0,0,1-5.85,5.85,14.681,14.681,0,0,1-4.854.929c-2.133.1-2.814,0.121-8.246,0.121s-6.113-.023-8.246-0.121a14.693,14.693,0,0,1-4.855-.929,10.228,10.228,0,0,1-5.849-5.85,14.681,14.681,0,0,1-.929-4.854c-0.1-2.133-.121-2.814-0.121-8.246s0.023-6.113.121-8.246a14.693,14.693,0,0,1,.929-4.855,10.23,10.23,0,0,1,5.849-5.849,14.693,14.693,0,0,1,4.855-.929c2.133-.1,2.814-0.121,8.246-0.121s6.113,0.023,8.246.121a14.681,14.681,0,0,1,4.854.929,10.228,10.228,0,0,1,5.85,5.849,14.693,14.693,0,0,1,.929,4.855c0.1,2.133.121,2.814,0.121,8.246S309.977,132.113,309.879,134.246Zm-4-16.31a10.542,10.542,0,0,0-.662-3.589,6.232,6.232,0,0,0-3.569-3.569,10.6,10.6,0,0,0-3.588-.662c-2.1-.1-2.733-0.116-8.064-0.116s-5.963.02-8.064,0.116a10.585,10.585,0,0,0-3.588.662,6.226,6.226,0,0,0-3.57,3.571,10.566,10.566,0,0,0-.662,3.587c-0.1,2.1-.116,2.732-0.116,8.064s0.02,5.962.116,8.063a10.579,10.579,0,0,0,.662,3.588,6.235,6.235,0,0,0,3.569,3.571,10.569,10.569,0,0,0,3.59.661c2.012,0.093,2.553.117,8.063,0.117s6.05-.024,8.064-0.117a10.572,10.572,0,0,0,3.586-.66,6.247,6.247,0,0,0,3.572-3.573,10.547,10.547,0,0,0,.661-3.587c0.093-2.013.117-2.554,0.117-8.063S305.976,119.949,305.883,117.936Zm-5.379.07a2.51,2.51,0,1,1,2.51-2.51A2.51,2.51,0,0,1,300.5,118.006ZM290,135.989A9.989,9.989,0,1,1,299.989,126,9.989,9.989,0,0,1,290,135.989Zm0-16A6.009,6.009,0,1,0,296.009,126,6.009,6.009,0,0,0,290,119.991Z" transform="translate(-260 -96)"/>
</svg>
